<?xml version="1.0" encoding="utf-8"?>
<!-- Generator: Adobe Illustrator 27.5.0, SVG Export Plug-In . SVG Version: 6.00 Build 0)  -->
<svg version="1.1" xmlns="http://www.w3.org/2000/svg" xmlns:xlink="http://www.w3.org/1999/xlink" x="0px" y="0px"
	 viewBox="0 0 500 500" style="enable-background:new 0 0 500 500;" xml:space="preserve">
<g id="BACKGROUND">
</g>
<g id="OBJECTS">
	<g>
		<path style="fill:#C6C5F0;" d="M440.766,278.3c-7.05-17.811-9.785-35.397-4.526-57.751c4.277-18.179,10.959-35.957,12.178-54.593
			C455.52,57.387,390.399,24.473,313.441,50.385c-24.661,8.303-79.225,24.868-105.762,26.875
			c-48.796,3.69-80.473-11.68-108.515-12.09C49.26,64.442,6.279,132.186,33.119,176.937c8.716,14.532,14.572,31.719,25.791,44.419
			c23.749,26.882,32.488,62.325,23.409,97.271c-5.683,21.876-14.873,42.946-17.687,65.373
			c-5.758,45.896,27.329,83.252,73.205,84.312c43.898,1.014,81.281-25.783,120.45-41.495c19.393-7.779,39.662-13.204,60.721-11.344
			c25.17,2.223,47.822,15.039,73.434,16.375c32.387,1.689,65.825-14.687,77.612-46.238c10.679-28.585-2.635-55.206-16.1-80.096
			C448.8,295.984,444.255,287.114,440.766,278.3z"/>
		<path style="opacity:0.38;fill:#8C9EF2;" d="M440.766,278.3c-5.073-12.816-7.891-25.526-7.125-39.97
			c-5.079,8.652-7.467,18.501-6.422,28.984c1.498,15.021,9.415,28.171,16.221,41.289c6.551,12.626,12.17,26.079,11.137,40.603
			c-0.948,13.33-6.404,26.27-15.956,35.684c-16.076,15.843-39.027,20.747-58.933,29.869c-6.251,2.865-12.706,6.294-17.702,11.155
			c9.906,2.895,19.931,5.383,30.456,5.932c32.387,1.689,65.825-14.687,77.612-46.238c10.678-28.585-2.635-55.206-16.1-80.096
			C448.8,295.984,444.255,287.114,440.766,278.3z"/>
		<g>
			<g>
				<ellipse style="fill:#E5EBFC;" cx="121.021" cy="63" rx="52.143" ry="18.659"/>
				<path style="fill:none;stroke:#FFFFFF;stroke-miterlimit:10;" d="M173.132,62.547c-24.624,21.841-94.323,8.405-90.351-12.228"/>
			</g>
			<g>
				<ellipse style="fill:#E5EBFC;" cx="422.993" cy="100.505" rx="52.143" ry="18.659"/>
				<path style="fill:none;stroke:#FFFFFF;stroke-miterlimit:10;" d="M475.104,100.053c-24.624,21.841-94.323,8.405-90.351-12.228"
					/>
			</g>
			<g>
				<ellipse style="fill:#E5EBFC;" cx="327.433" cy="50.319" rx="52.143" ry="18.659"/>
				<path style="fill:none;stroke:#FFFFFF;stroke-miterlimit:10;" d="M379.544,49.867c-18.937-11.285-44.129-15.361-90.351-12.228
					c0,0,49.09-4.543,78.266,25.464"/>
			</g>
		</g>
		<g>
			<path style="fill:#CCD7F2;" d="M393.863,312.42L393.81,92.979c-0.001-4.917-3.988-8.902-8.906-8.901l-14.941,0.004l-7.205,0.002
				L73.906,84.15l-7.692,0.002l-17.926,0.005c-4.917,0.001-8.902,3.988-8.901,8.906l0.053,219.441
				c0.001,4.917,3.988,8.902,8.906,8.901l336.617-0.078C389.879,321.324,393.864,317.337,393.863,312.42z"/>
			<g>
				<path style="fill:#FFFFFF;" d="M389.891,317.431l-336.617,0.078c-4.917,0.001-8.904-3.984-8.905-8.901L44.317,89.168
					c-0.001-4.917,3.984-8.904,8.901-8.906l336.616-0.078c4.917-0.001,8.904,3.984,8.906,8.901l0.053,219.441
					C398.794,313.442,394.809,317.43,389.891,317.431z"/>
				<rect x="52.555" y="122.782" style="fill:#737072;" width="341.308" height="1.126"/>
				<g>
					
						<line style="fill:none;stroke:#E5EBFC;stroke-width:2;stroke-miterlimit:10;" x1="331.356" y1="139.755" x2="386.82" y2="139.755"/>
					
						<line style="fill:none;stroke:#E5EBFC;stroke-width:2;stroke-miterlimit:10;" x1="331.356" y1="162.556" x2="386.82" y2="162.556"/>
					
						<line style="fill:none;stroke:#E5EBFC;stroke-width:2;stroke-miterlimit:10;" x1="331.356" y1="185.356" x2="386.82" y2="185.356"/>
					
						<line style="fill:none;stroke:#E5EBFC;stroke-width:2;stroke-miterlimit:10;" x1="331.356" y1="208.156" x2="386.82" y2="208.156"/>
					
						<line style="fill:none;stroke:#E5EBFC;stroke-width:2;stroke-miterlimit:10;" x1="331.356" y1="230.956" x2="386.82" y2="230.956"/>
					
						<line style="fill:none;stroke:#E5EBFC;stroke-width:2;stroke-miterlimit:10;" x1="331.356" y1="253.757" x2="386.82" y2="253.757"/>
					
						<line style="fill:none;stroke:#E5EBFC;stroke-width:2;stroke-miterlimit:10;" x1="331.356" y1="276.557" x2="386.82" y2="276.557"/>
					
						<line style="fill:none;stroke:#E5EBFC;stroke-width:2;stroke-miterlimit:10;" x1="331.356" y1="299.357" x2="386.82" y2="299.357"/>
				</g>
				<g>
					<rect x="171.39" y="176.587" style="fill:#E5EBFC;" width="24.76" height="23.257"/>
					<rect x="171.397" y="202.201" style="fill:#E5EBFC;" width="24.76" height="23.257"/>
					<rect x="171.404" y="227.815" style="fill:#E5EBFC;" width="24.76" height="23.257"/>
				</g>
				<g>
					<rect x="131.782" y="176.597" style="fill:#E5EBFC;" width="24.76" height="23.257"/>
					<rect x="131.788" y="202.211" style="fill:#E5EBFC;" width="24.76" height="23.257"/>
					<rect x="131.795" y="227.825" style="fill:#E5EBFC;" width="24.76" height="23.257"/>
				</g>
				<g>
					<rect x="92.173" y="176.607" style="fill:#E5EBFC;" width="24.76" height="23.257"/>
					<rect x="171.384" y="150.973" style="fill:#E5EBFC;" width="24.76" height="23.257"/>
					<rect x="131.775" y="150.983" style="fill:#E5EBFC;" width="24.76" height="23.257"/>
					<rect x="92.166" y="150.993" style="fill:#E5EBFC;" width="24.76" height="23.257"/>
					<rect x="92.179" y="202.221" style="fill:#E5EBFC;" width="24.76" height="23.257"/>
					<rect x="92.186" y="227.835" style="fill:#E5EBFC;" width="24.76" height="23.257"/>
					<rect x="92.193" y="253.45" style="fill:#E5EBFC;" width="24.76" height="23.257"/>
				</g>
				<g>
					<rect x="52.564" y="176.617" style="fill:#E5EBFC;" width="24.76" height="23.257"/>
					<rect x="52.557" y="151.003" style="fill:#E5EBFC;" width="24.76" height="23.257"/>
					<rect x="52.571" y="202.232" style="fill:#E5EBFC;" width="24.76" height="23.257"/>
					<rect x="52.577" y="227.846" style="fill:#E5EBFC;" width="24.76" height="23.257"/>
					<rect x="52.584" y="253.46" style="fill:#E5EBFC;" width="24.76" height="23.257"/>
				</g>
				<g>
					<rect x="210.993" y="150.963" style="fill:#E5EBFC;" width="24.76" height="23.257"/>
					<rect x="210.999" y="176.577" style="fill:#E5EBFC;" width="24.76" height="23.257"/>
					<rect x="211.006" y="202.191" style="fill:#E5EBFC;" width="24.76" height="23.257"/>
					<rect x="211.012" y="227.805" style="fill:#E5EBFC;" width="24.76" height="23.257"/>
				</g>
				<g>
					<rect x="250.601" y="150.952" style="fill:#F68A73;" width="24.76" height="23.257"/>
					<rect x="250.608" y="176.566" style="fill:#E5EBFC;" width="24.76" height="23.257"/>
					<rect x="250.614" y="202.181" style="fill:#E5EBFC;" width="24.76" height="23.257"/>
					<rect x="250.621" y="227.795" style="fill:#E5EBFC;" width="24.76" height="23.257"/>
				</g>
				<g>
					<rect x="290.21" y="150.942" style="fill:#E5EBFC;" width="24.76" height="23.257"/>
					<rect x="290.217" y="176.556" style="fill:#E5EBFC;" width="24.76" height="23.257"/>
					<rect x="290.223" y="202.17" style="fill:#E5EBFC;" width="24.76" height="23.257"/>
					<rect x="290.23" y="227.785" style="fill:#E5EBFC;" width="24.76" height="23.257"/>
				</g>
				<g>
					<g>
						<path style="fill:#F68A73;" d="M63.731,132.689c-0.187,0.153-0.28,0.358-0.28,0.61c0,0.253,0.114,0.453,0.342,0.604
							c0.229,0.149,0.756,0.326,1.581,0.529c0.827,0.203,1.468,0.509,1.925,0.914c0.455,0.408,0.684,1,0.684,1.781
							c0,0.779-0.292,1.412-0.876,1.899c-0.586,0.486-1.356,0.728-2.31,0.728c-1.378,0-2.619-0.51-3.724-1.53l1.159-1.42
							c0.939,0.821,1.806,1.233,2.603,1.232c0.356,0,0.637-0.078,0.841-0.231c0.203-0.153,0.304-0.362,0.304-0.622
							c0-0.263-0.108-0.469-0.324-0.622c-0.215-0.155-0.643-0.31-1.283-0.467c-1.012-0.24-1.754-0.554-2.223-0.94
							c-0.469-0.386-0.704-0.992-0.704-1.817c0-0.827,0.298-1.464,0.89-1.913c0.594-0.447,1.334-0.672,2.223-0.673
							c0.581,0,1.164,0.099,1.744,0.298c0.581,0.201,1.088,0.483,1.52,0.847l-0.984,1.42c-0.756-0.572-1.535-0.859-2.34-0.859
							C64.173,132.458,63.918,132.536,63.731,132.689z"/>
					</g>
					<g>
						<path style="fill:#737072;" d="M108.428,134.165l-2.353,4.759l-1.157,0l-2.341-4.758l0.001,5.48l-1.943,0.001l-0.002-8.705
							l2.627-0.001l2.242,4.781l2.254-4.783l2.615-0.001l0.002,8.705l-1.942,0.001L108.428,134.165z"/>
					</g>
					<g>
						<path style="fill:#737072;" d="M145.033,132.613l0.002,7.023l-1.942,0.001l-0.002-7.023l-2.466,0.001l-0.001-1.682
							l6.874-0.002l0,1.682L145.033,132.613z"/>
					</g>
					<g>
						<path style="fill:#737072;" d="M182.32,135.928l1.542-5.007l2.03-0.001l1.535,5.006l1.729-5.007l2.106-0.001l-3.038,8.706
							l-1.444,0l-1.906-6.052l-1.891,6.053l-1.446,0l-3.04-8.704l2.106-0.001L182.32,135.928z"/>
					</g>
					<g>
						<path style="fill:#737072;" d="M224.492,132.592l0.002,7.023l-1.942,0.001l-0.002-7.023l-2.466,0.001l0-1.682l6.874-0.002
							l0,1.682L224.492,132.592z"/>
					</g>
					<g>
						<path style="fill:#737072;" d="M266.589,130.899l0,1.706l-4.034,0.001l0.001,1.881l3.836-0.001l0,1.706l-3.836,0.001
							l0.001,3.412l-1.943,0.001l-0.002-8.705L266.589,130.899z"/>
					</g>
					<g>
						<path style="fill:#737072;" d="M302.097,132.628c-0.187,0.153-0.28,0.358-0.28,0.611c0,0.253,0.113,0.453,0.342,0.604
							c0.229,0.149,0.755,0.326,1.581,0.529c0.827,0.203,1.467,0.509,1.925,0.914c0.455,0.407,0.684,1,0.685,1.781
							c0,0.779-0.292,1.412-0.876,1.899c-0.587,0.486-1.356,0.728-2.31,0.728c-1.378,0-2.619-0.51-3.725-1.53l1.159-1.42
							c0.939,0.821,1.806,1.233,2.603,1.232c0.356,0,0.637-0.078,0.841-0.231c0.203-0.153,0.304-0.362,0.304-0.622
							c0-0.263-0.108-0.469-0.324-0.622c-0.215-0.155-0.642-0.31-1.282-0.467c-1.012-0.24-1.754-0.554-2.223-0.94
							c-0.47-0.386-0.704-0.992-0.705-1.817c0-0.827,0.298-1.464,0.89-1.913c0.595-0.447,1.334-0.672,2.223-0.672
							c0.58,0,1.163,0.099,1.744,0.298c0.581,0.201,1.088,0.483,1.519,0.847l-0.984,1.42c-0.755-0.572-1.535-0.859-2.34-0.859
							C302.538,132.397,302.284,132.475,302.097,132.628z"/>
					</g>
					
						<text transform="matrix(1 -2.600000e-04 2.600000e-04 1 53.5511 115.2307)" style="fill:#D15332; font-family:'Montserrat-Bold'; font-size:13.8711px;">NOVEMBER</text>
					<g>
						<path style="fill:#F68A73;" d="M60.985,157.502l4.281,0.022l-0.055,10.572l-2.269-0.012l0.044-8.559l-2.012-0.01
							L60.985,157.502z"/>
					</g>
					<g>
						<path style="fill:#737072;" d="M105.684,161.854c0.269-0.376,0.405-0.741,0.407-1.093c0.002-0.354-0.113-0.649-0.343-0.887
							c-0.232-0.238-0.528-0.359-0.892-0.36c-0.666-0.003-1.299,0.468-1.897,1.411l-1.886-1.129c0.498-0.764,1.042-1.34,1.635-1.731
							c0.592-0.39,1.343-0.582,2.256-0.577c0.911,0.005,1.712,0.298,2.4,0.882c0.687,0.582,1.029,1.373,1.024,2.371
							c-0.003,0.546-0.146,1.067-0.425,1.564c-0.279,0.498-0.795,1.132-1.544,1.905l-1.917,1.973l4.174,0.022l-0.011,2.116
							l-7.455-0.039l0.009-1.755l3.117-3.16C104.966,162.735,105.416,162.232,105.684,161.854z"/>
					</g>
					<g>
						<path style="fill:#737072;" d="M140.975,159.928l0.01-2.012l6.473,0.034l-0.008,1.634l-2.175,2.453
							c0.845,0.145,1.499,0.504,1.961,1.076c0.459,0.574,0.689,1.231,0.686,1.978c-0.006,1.109-0.388,1.976-1.14,2.603
							c-0.756,0.627-1.718,0.936-2.886,0.93c-1.17-0.006-2.352-0.425-3.549-1.258l0.978-1.87c0.994,0.711,1.885,1.069,2.672,1.073
							c0.472,0.002,0.864-0.112,1.174-0.342c0.308-0.231,0.464-0.565,0.466-1.003c0.002-0.439-0.172-0.787-0.524-1.046
							c-0.35-0.259-0.84-0.39-1.465-0.393c-0.332-0.002-0.803,0.091-1.408,0.279l0.009-1.739l2.04-2.379L140.975,159.928z"/>
					</g>
					<g>
						<path style="fill:#737072;" d="M184.095,164.143l0.01-1.846l2.269,0.012l-0.01,1.846l1.194,0.006l-0.01,2.042l-1.194-0.006
							l-0.013,2.526l-2.269-0.012l0.013-2.526l-4.251-0.022l0.009-1.8l3.799-6.226l2.571,0.013l-3.616,5.986L184.095,164.143z"/>
					</g>
					<g>
						<path style="fill:#737072;" d="M226.49,158.358l-0.011,2.042l-4.174-0.021l-0.009,1.769c0.313-0.087,0.671-0.131,1.074-0.129
							c1.02,0.005,1.894,0.316,2.628,0.934c0.732,0.621,1.095,1.451,1.09,2.494c-0.005,1.044-0.389,1.903-1.154,2.581
							c-0.767,0.676-1.707,1.011-2.826,1.005c-1.433-0.008-2.624-0.543-3.577-1.606l1.248-1.719
							c0.091,0.092,0.213,0.203,0.362,0.336c0.152,0.132,0.427,0.307,0.83,0.526c0.402,0.217,0.804,0.328,1.208,0.33
							c0.403,0.002,0.762-0.117,1.075-0.356c0.316-0.242,0.473-0.599,0.476-1.073c0.002-0.472-0.166-0.839-0.502-1.098
							c-0.337-0.26-0.771-0.391-1.306-0.394c-0.534-0.003-1.155,0.186-1.863,0.566l-0.976-1.062l0.027-5.158L226.49,158.358z"/>
					</g>
					<g>
						<path style="fill:#737072;" d="M263.737,160.336c-0.656-0.003-1.163,0.213-1.523,0.65c-0.36,0.437-0.583,1.033-0.667,1.789
							c0.658-0.422,1.355-0.63,2.09-0.626c0.988,0.005,1.811,0.334,2.468,0.981c0.657,0.65,0.982,1.509,0.977,2.584
							c-0.006,1.073-0.364,1.931-1.079,2.572c-0.715,0.643-1.611,0.96-2.689,0.955c-0.747-0.004-1.395-0.15-1.942-0.441
							c-0.548-0.289-0.971-0.693-1.271-1.208c-0.599-1.001-0.895-2.254-0.888-3.756c0.005-0.968,0.126-1.816,0.367-2.546
							c0.241-0.73,0.57-1.305,0.985-1.728c0.811-0.842,1.811-1.26,3.001-1.253c0.494,0.003,0.964,0.078,1.414,0.227
							c0.446,0.148,0.791,0.299,1.033,0.45c0.24,0.153,0.506,0.346,0.798,0.579l-1.127,1.658c-0.061-0.061-0.147-0.141-0.263-0.245
							c-0.116-0.099-0.345-0.233-0.686-0.397C264.391,160.42,264.059,160.337,263.737,160.336z M263.407,164.144
							c-0.468-0.002-0.862,0.136-1.182,0.411c-0.32,0.275-0.479,0.636-0.482,1.079c-0.002,0.445,0.148,0.825,0.449,1.145
							c0.301,0.318,0.677,0.48,1.132,0.482c0.453,0.002,0.831-0.138,1.137-0.417c0.304-0.281,0.456-0.646,0.458-1.095
							c0.002-0.449-0.132-0.828-0.403-1.136C264.246,164.303,263.876,164.147,263.407,164.144z"/>
					</g>
					<g>
						<path style="fill:#737072;" d="M298.478,162.118l0.017-3.387l7.637,0.04l-0.009,1.785l-4.326,8.765l-2.569-0.013l4.127-8.525
							l-2.662-0.014l-0.007,1.362L298.478,162.118z"/>
					</g>
					<g>
						<path style="fill:#F68A73;" d="M63.064,183.309c0.703-0.552,1.58-0.824,2.627-0.818c1.05,0.005,1.92,0.286,2.613,0.845
							c0.692,0.557,1.037,1.243,1.033,2.053c-0.004,0.812-0.32,1.508-0.948,2.09c0.874,0.68,1.308,1.57,1.302,2.669
							c-0.005,0.927-0.382,1.707-1.132,2.338c-0.748,0.632-1.724,0.944-2.924,0.937c-1.2-0.006-2.17-0.327-2.914-0.967
							c-0.742-0.639-1.111-1.423-1.107-2.35c0.006-1.099,0.449-1.984,1.33-2.655c-0.631-0.598-0.946-1.3-0.941-2.106
							C62.007,184.538,62.36,183.859,63.064,183.309z M64.498,191.097c0.351,0.239,0.733,0.358,1.146,0.36
							c0.413,0.002,0.797-0.112,1.152-0.348c0.353-0.235,0.532-0.58,0.535-1.035c0.002-0.453-0.168-0.801-0.508-1.046
							c-0.343-0.243-0.729-0.365-1.164-0.368c-0.433-0.002-0.821,0.116-1.166,0.355c-0.343,0.242-0.517,0.588-0.519,1.041
							C63.972,190.512,64.146,190.858,64.498,191.097z M64.665,186.477c0.287,0.243,0.621,0.365,1.004,0.367
							c0.383,0.002,0.72-0.117,1.008-0.356c0.29-0.242,0.434-0.539,0.436-0.897c0.002-0.358-0.137-0.659-0.418-0.903
							c-0.281-0.243-0.619-0.365-1.012-0.367c-0.394-0.002-0.732,0.117-1.014,0.357c-0.284,0.241-0.428,0.541-0.43,0.899
							C64.237,185.933,64.38,186.232,64.665,186.477z"/>
					</g>
					<g>
						<path style="fill:#737072;" d="M104.416,191.598c0.656,0.003,1.163-0.213,1.523-0.65c0.36-0.437,0.583-1.033,0.667-1.789
							c-0.647,0.431-1.344,0.643-2.09,0.639c-0.989-0.005-1.811-0.334-2.468-0.987s-0.982-1.515-0.977-2.584
							c0.006-1.069,0.366-1.927,1.079-2.574c0.715-0.647,1.612-0.966,2.691-0.96c0.745,0.004,1.393,0.149,1.94,0.441
							c0.548,0.289,0.977,0.693,1.287,1.208c0.589,1.001,0.882,2.254,0.874,3.755c-0.005,0.969-0.128,1.816-0.369,2.546
							c-0.241,0.73-0.564,1.306-0.969,1.727c-0.83,0.843-1.837,1.261-3.017,1.255c-0.494-0.003-0.968-0.078-1.42-0.227
							c-0.454-0.148-0.795-0.296-1.025-0.444c-0.232-0.147-0.498-0.337-0.799-0.571l1.188-1.656
							c0.069,0.059,0.163,0.139,0.278,0.234c0.116,0.097,0.34,0.227,0.672,0.389C103.812,191.514,104.123,191.597,104.416,191.598z
							 M104.762,187.788c0.468,0.003,0.86-0.13,1.174-0.401c0.314-0.271,0.472-0.628,0.474-1.071
							c0.002-0.444-0.146-0.829-0.447-1.152c-0.301-0.324-0.679-0.488-1.132-0.49c-0.455-0.002-0.825,0.14-1.115,0.425
							c-0.288,0.287-0.434,0.652-0.436,1.095c-0.002,0.445,0.126,0.821,0.388,1.128
							C103.928,187.631,104.293,187.785,104.762,187.788z"/>
					</g>
					<g>
						<path style="fill:#737072;" d="M135.881,183.094l4.281,0.022l-0.055,10.572l-2.269-0.012l0.044-8.56l-2.012-0.01
							L135.881,183.094z"/>
						<path style="fill:#737072;" d="M146.67,193.843c-1.462-0.008-2.553-0.509-3.275-1.507c-0.72-0.996-1.075-2.324-1.067-3.982
							c0.009-1.658,0.377-2.983,1.108-3.973c0.732-0.988,1.828-1.479,3.29-1.471c1.462,0.008,2.553,0.509,3.275,1.505
							c0.72,0.998,1.077,2.326,1.069,3.984c-0.008,1.658-0.379,2.982-1.11,3.971C149.228,193.36,148.132,193.85,146.67,193.843z
							 M145.154,185.821c-0.337,0.642-0.508,1.493-0.513,2.553c-0.005,1.057,0.156,1.912,0.487,2.558
							c0.329,0.648,0.847,0.973,1.552,0.976c0.706,0.004,1.227-0.316,1.563-0.96c0.337-0.643,0.508-1.496,0.513-2.553
							c0.005-1.059-0.156-1.912-0.487-2.558c-0.329-0.648-0.847-0.973-1.553-0.977C146.011,184.857,145.49,185.176,145.154,185.821z
							"/>
					</g>
					<g>
						<path style="fill:#737072;" d="M178.274,183.017l4.281,0.022l-0.055,10.572l-2.269-0.012l0.044-8.56l-2.012-0.01
							L178.274,183.017z"/>
						<path style="fill:#737072;" d="M184.369,183.048l4.281,0.022l-0.055,10.572l-2.269-0.012l0.044-8.56l-2.012-0.01
							L184.369,183.048z"/>
					</g>
					<g>
						<path style="fill:#737072;" d="M214.699,183.502l4.281,0.022l-0.055,10.572l-2.269-0.012l0.044-8.56l-2.012-0.01
							L214.699,183.502z"/>
						<path style="fill:#737072;" d="M225.621,187.68c0.269-0.376,0.405-0.741,0.407-1.093c0.002-0.354-0.113-0.649-0.343-0.887
							c-0.232-0.238-0.528-0.358-0.892-0.36c-0.666-0.003-1.299,0.467-1.897,1.411l-1.885-1.128
							c0.498-0.765,1.042-1.341,1.635-1.731c0.591-0.39,1.343-0.582,2.256-0.577c0.911,0.005,1.712,0.298,2.4,0.882
							c0.687,0.583,1.029,1.373,1.024,2.371c-0.003,0.545-0.146,1.067-0.425,1.563c-0.279,0.498-0.794,1.132-1.544,1.905
							l-1.918,1.972l4.174,0.022l-0.011,2.117l-7.455-0.038l0.009-1.755l3.117-3.16C224.902,188.562,225.352,188.058,225.621,187.68
							z"/>
					</g>
					<g>
						<path style="fill:#737072;" d="M254.161,183.707l4.281,0.022l-0.055,10.572l-2.269-0.012l0.044-8.56l-2.012-0.01
							L254.161,183.707z"/>
						<path style="fill:#737072;" d="M260.912,185.754l0.01-2.012l6.473,0.034l-0.008,1.634l-2.175,2.453
							c0.845,0.145,1.499,0.504,1.961,1.076c0.459,0.574,0.689,1.231,0.685,1.978c-0.006,1.109-0.388,1.977-1.14,2.603
							c-0.756,0.627-1.718,0.936-2.886,0.93c-1.17-0.006-2.352-0.425-3.549-1.257l0.978-1.871c0.995,0.711,1.886,1.069,2.673,1.073
							c0.472,0.002,0.864-0.112,1.174-0.342c0.308-0.232,0.464-0.565,0.466-1.003c0.002-0.439-0.172-0.788-0.524-1.047
							c-0.35-0.258-0.84-0.39-1.464-0.393c-0.332-0.002-0.803,0.091-1.409,0.279l0.009-1.739l2.04-2.379L260.912,185.754z"/>
					</g>
					<g>
						<path style="fill:#737072;" d="M293.643,183.911l4.281,0.022l-0.055,10.572l-2.269-0.012l0.044-8.56l-2.012-0.01
							L293.643,183.911z"/>
						<path style="fill:#737072;" d="M304.033,189.969l0.009-1.846l2.269,0.012l-0.009,1.846l1.194,0.006l-0.01,2.042l-1.194-0.006
							l-0.013,2.526l-2.269-0.012l0.013-2.526l-4.251-0.022l0.009-1.8l3.799-6.226l2.572,0.013l-3.616,5.986L304.033,189.969z"/>
					</g>
					<g>
						<path style="fill:#F68A73;" d="M56.954,208.68l4.281,0.022l-0.055,10.572l-2.269-0.012l0.044-8.56l-2.012-0.01L56.954,208.68z
							"/>
						<path style="fill:#F68A73;" d="M70.233,208.749l-0.01,2.042l-4.174-0.022l-0.009,1.769c0.313-0.087,0.671-0.131,1.074-0.129
							c1.02,0.005,1.893,0.316,2.628,0.934c0.732,0.621,1.095,1.451,1.09,2.494s-0.389,1.903-1.154,2.581
							c-0.767,0.676-1.707,1.011-2.826,1.005c-1.433-0.007-2.624-0.544-3.577-1.606l1.248-1.719
							c0.091,0.092,0.213,0.203,0.362,0.336c0.151,0.132,0.427,0.306,0.829,0.526c0.402,0.217,0.805,0.328,1.208,0.33
							c0.403,0.002,0.761-0.117,1.075-0.356c0.315-0.242,0.473-0.599,0.476-1.073c0.003-0.472-0.166-0.839-0.502-1.098
							c-0.337-0.26-0.771-0.391-1.306-0.394c-0.534-0.003-1.155,0.186-1.863,0.566l-0.977-1.062l0.027-5.158L70.233,208.749z"/>
					</g>
					<g>
						<path style="fill:#737072;" d="M96.507,208.885l4.281,0.022l-0.055,10.572l-2.269-0.012l0.044-8.559l-2.012-0.01
							L96.507,208.885z"/>
						<path style="fill:#737072;" d="M107.479,210.726c-0.656-0.003-1.163,0.213-1.523,0.65c-0.36,0.437-0.583,1.033-0.667,1.789
							c0.658-0.422,1.355-0.63,2.09-0.626c0.988,0.005,1.811,0.334,2.468,0.981c0.657,0.65,0.982,1.509,0.977,2.584
							c-0.006,1.073-0.364,1.931-1.079,2.572c-0.715,0.643-1.612,0.96-2.689,0.955c-0.747-0.004-1.394-0.15-1.942-0.441
							c-0.548-0.289-0.971-0.693-1.271-1.208c-0.6-1.001-0.895-2.254-0.888-3.756c0.005-0.968,0.126-1.815,0.367-2.546
							c0.241-0.73,0.57-1.305,0.985-1.728c0.811-0.842,1.811-1.26,3.001-1.253c0.494,0.003,0.964,0.078,1.414,0.227
							c0.446,0.148,0.791,0.299,1.033,0.45c0.241,0.154,0.506,0.346,0.798,0.579l-1.127,1.658c-0.061-0.061-0.147-0.141-0.263-0.245
							c-0.116-0.099-0.345-0.233-0.686-0.397C108.132,210.811,107.801,210.728,107.479,210.726z M107.148,214.535
							c-0.468-0.002-0.862,0.136-1.182,0.411c-0.32,0.275-0.479,0.636-0.482,1.079c-0.002,0.445,0.148,0.825,0.449,1.145
							c0.301,0.318,0.677,0.48,1.132,0.482c0.452,0.002,0.831-0.138,1.137-0.417c0.304-0.281,0.456-0.646,0.458-1.095
							c0.002-0.448-0.132-0.828-0.403-1.136C107.988,214.694,107.617,214.538,107.148,214.535z"/>
					</g>
					<g>
						<path style="fill:#737072;" d="M135.896,209.089l4.281,0.022l-0.055,10.571l-2.269-0.012l0.044-8.56l-2.012-0.01
							L135.896,209.089z"/>
						<path style="fill:#737072;" d="M142.217,212.509l0.018-3.387l7.637,0.039l-0.009,1.785l-4.326,8.765l-2.57-0.013l4.128-8.525
							l-2.662-0.014l-0.007,1.362L142.217,212.509z"/>
					</g>
					<g>
						<path style="fill:#737072;" d="M175.509,209.294l4.281,0.022l-0.055,10.572l-2.269-0.012l0.044-8.559l-2.012-0.01
							L175.509,209.294z"/>
						<path style="fill:#737072;" d="M183.364,209.926c0.702-0.552,1.579-0.824,2.627-0.819c1.05,0.005,1.92,0.287,2.613,0.846
							c0.693,0.557,1.037,1.242,1.033,2.053c-0.004,0.812-0.32,1.508-0.947,2.09c0.874,0.68,1.308,1.57,1.302,2.669
							c-0.005,0.927-0.382,1.708-1.133,2.338c-0.748,0.633-1.724,0.944-2.924,0.938c-1.2-0.006-2.17-0.327-2.914-0.968
							c-0.742-0.638-1.111-1.423-1.106-2.35c0.006-1.098,0.449-1.984,1.33-2.655c-0.632-0.598-0.946-1.299-0.942-2.106
							C182.306,211.155,182.659,210.475,183.364,209.926z M184.798,217.714c0.35,0.239,0.734,0.358,1.146,0.36
							c0.413,0.002,0.797-0.112,1.152-0.348c0.353-0.235,0.533-0.58,0.535-1.035c0.002-0.452-0.168-0.801-0.509-1.046
							c-0.342-0.243-0.73-0.366-1.164-0.368c-0.433-0.002-0.821,0.116-1.166,0.356c-0.343,0.241-0.517,0.588-0.519,1.041
							C184.271,217.128,184.445,217.475,184.798,217.714z M184.964,213.094c0.287,0.243,0.621,0.365,1.004,0.367
							c0.384,0.002,0.72-0.117,1.008-0.357c0.29-0.241,0.433-0.539,0.435-0.897c0.002-0.358-0.137-0.659-0.418-0.904
							c-0.281-0.242-0.619-0.365-1.012-0.367c-0.393-0.002-0.732,0.117-1.014,0.356c-0.284,0.242-0.428,0.542-0.43,0.899
							C184.536,212.551,184.679,212.85,184.964,213.094z"/>
					</g>
					<g>
						<path style="fill:#737072;" d="M214.971,209.498l4.281,0.022l-0.055,10.572l-2.269-0.012l0.044-8.559l-2.012-0.01
							L214.971,209.498z"/>
						<path style="fill:#737072;" d="M224.711,218.215c0.656,0.003,1.163-0.213,1.523-0.65c0.36-0.437,0.582-1.033,0.667-1.789
							c-0.646,0.432-1.343,0.643-2.09,0.64c-0.988-0.005-1.81-0.334-2.467-0.987c-0.657-0.654-0.982-1.515-0.977-2.585
							c0.005-1.069,0.365-1.927,1.078-2.574c0.715-0.646,1.612-0.966,2.691-0.96c0.745,0.004,1.393,0.15,1.941,0.441
							c0.548,0.29,0.977,0.693,1.286,1.208c0.59,1.001,0.882,2.254,0.874,3.756c-0.005,0.969-0.128,1.816-0.369,2.546
							c-0.241,0.73-0.564,1.305-0.969,1.726c-0.831,0.844-1.837,1.262-3.016,1.255c-0.494-0.003-0.968-0.078-1.42-0.227
							c-0.454-0.149-0.795-0.297-1.025-0.444c-0.232-0.147-0.498-0.337-0.799-0.571l1.188-1.656c0.069,0.06,0.163,0.139,0.277,0.235
							c0.116,0.098,0.341,0.227,0.672,0.389C224.106,218.131,224.419,218.214,224.711,218.215z M225.057,214.404
							c0.469,0.003,0.86-0.13,1.174-0.401c0.314-0.271,0.472-0.628,0.474-1.071c0.002-0.445-0.146-0.829-0.447-1.153
							c-0.301-0.324-0.68-0.488-1.132-0.49c-0.454-0.002-0.825,0.14-1.115,0.425c-0.288,0.287-0.434,0.652-0.436,1.095
							c-0.002,0.445,0.126,0.821,0.387,1.128C224.224,214.248,224.589,214.402,225.057,214.404z"/>
					</g>
					<g>
						<path style="fill:#737072;" d="M259.783,213.851c0.269-0.376,0.405-0.741,0.407-1.093c0.002-0.354-0.113-0.649-0.344-0.887
							c-0.232-0.238-0.528-0.359-0.891-0.36c-0.666-0.004-1.299,0.468-1.897,1.411l-1.886-1.129c0.498-0.764,1.043-1.34,1.636-1.731
							c0.591-0.39,1.343-0.582,2.256-0.577c0.911,0.005,1.712,0.297,2.401,0.882c0.687,0.582,1.028,1.373,1.023,2.371
							c-0.003,0.546-0.146,1.067-0.425,1.564c-0.279,0.498-0.794,1.132-1.544,1.905l-1.917,1.973l4.174,0.022l-0.011,2.117
							l-7.455-0.039l0.009-1.755l3.117-3.16C259.066,214.733,259.515,214.229,259.783,213.851z"/>
						<path style="fill:#737072;" d="M268.801,220.469c-1.463-0.008-2.553-0.509-3.275-1.507c-0.72-0.996-1.075-2.324-1.066-3.982
							c0.009-1.658,0.377-2.982,1.107-3.973c0.732-0.988,1.828-1.479,3.291-1.471c1.462,0.008,2.553,0.509,3.275,1.505
							c0.72,0.998,1.077,2.326,1.068,3.984s-0.379,2.982-1.109,3.971C271.359,219.986,270.264,220.477,268.801,220.469z
							 M267.285,212.447c-0.337,0.643-0.508,1.493-0.513,2.553c-0.005,1.057,0.156,1.912,0.487,2.558
							c0.329,0.648,0.847,0.973,1.552,0.977c0.706,0.004,1.227-0.316,1.562-0.96c0.338-0.643,0.508-1.495,0.513-2.553
							c0.005-1.06-0.156-1.912-0.487-2.558c-0.329-0.648-0.847-0.973-1.552-0.976C268.142,211.483,267.621,211.802,267.285,212.447z
							"/>
					</g>
					<g>
						<path style="fill:#737072;" d="M298.728,214.053c0.269-0.376,0.405-0.741,0.407-1.093c0.002-0.354-0.113-0.649-0.343-0.887
							c-0.232-0.238-0.528-0.359-0.892-0.36c-0.666-0.003-1.299,0.468-1.897,1.411l-1.886-1.129c0.498-0.764,1.043-1.34,1.636-1.731
							c0.591-0.39,1.343-0.582,2.256-0.577c0.911,0.005,1.712,0.297,2.401,0.882c0.687,0.582,1.028,1.373,1.023,2.371
							c-0.003,0.546-0.146,1.066-0.425,1.563c-0.279,0.498-0.794,1.132-1.543,1.905l-1.918,1.973l4.174,0.022l-0.011,2.117
							l-7.455-0.039l0.009-1.755l3.118-3.16C298.01,214.934,298.459,214.43,298.728,214.053z"/>
						<path style="fill:#737072;" d="M303.052,209.954l4.281,0.022l-0.055,10.572l-2.269-0.012l0.044-8.559l-2.012-0.01
							L303.052,209.954z"/>
					</g>
					<g>
						<path style="fill:#F68A73;" d="M61.083,238.21c0.269-0.376,0.405-0.741,0.407-1.093c0.002-0.354-0.113-0.649-0.344-0.887
							c-0.232-0.238-0.528-0.359-0.892-0.36c-0.666-0.004-1.299,0.468-1.897,1.411l-1.886-1.129c0.498-0.764,1.043-1.34,1.636-1.73
							c0.591-0.39,1.343-0.582,2.256-0.578c0.911,0.005,1.712,0.297,2.401,0.882c0.687,0.583,1.028,1.373,1.023,2.371
							c-0.003,0.545-0.146,1.066-0.425,1.563c-0.28,0.498-0.794,1.132-1.544,1.905l-1.917,1.973l4.174,0.022l-0.011,2.117
							l-7.455-0.039l0.009-1.755l3.117-3.16C60.365,239.092,60.814,238.588,61.083,238.21z"/>
						<path style="fill:#F68A73;" d="M70.233,238.258c0.269-0.376,0.405-0.741,0.407-1.093c0.002-0.354-0.113-0.649-0.343-0.887
							c-0.232-0.238-0.528-0.359-0.891-0.36c-0.666-0.003-1.299,0.468-1.897,1.411l-1.886-1.129c0.498-0.764,1.042-1.34,1.635-1.73
							c0.591-0.39,1.343-0.582,2.257-0.578c0.911,0.005,1.712,0.298,2.4,0.882c0.687,0.583,1.029,1.373,1.024,2.371
							c-0.003,0.545-0.146,1.066-0.425,1.563c-0.279,0.498-0.794,1.132-1.544,1.905l-1.917,1.973l4.174,0.022l-0.011,2.117
							l-7.455-0.039l0.009-1.755l3.117-3.16C69.515,239.139,69.965,238.635,70.233,238.258z"/>
					</g>
					<g>
						<path style="fill:#737072;" d="M101.508,238.241c0.269-0.376,0.405-0.741,0.407-1.093c0.002-0.354-0.113-0.649-0.343-0.887
							c-0.232-0.238-0.528-0.359-0.891-0.36c-0.666-0.003-1.299,0.468-1.897,1.411l-1.885-1.129c0.498-0.764,1.042-1.34,1.635-1.73
							c0.591-0.39,1.343-0.582,2.256-0.578c0.911,0.005,1.712,0.298,2.401,0.882c0.687,0.583,1.028,1.373,1.023,2.371
							c-0.003,0.545-0.146,1.066-0.425,1.563c-0.279,0.498-0.794,1.132-1.543,1.905l-1.918,1.973l4.174,0.022l-0.011,2.117
							l-7.455-0.039l0.009-1.755l3.117-3.16C100.79,239.122,101.239,238.619,101.508,238.241z"/>
						<path style="fill:#737072;" d="M106.487,236.158l0.01-2.012l6.473,0.033l-0.008,1.634l-2.175,2.453
							c0.845,0.145,1.5,0.504,1.961,1.076c0.459,0.573,0.689,1.231,0.685,1.978c-0.006,1.109-0.387,1.977-1.14,2.603
							c-0.756,0.627-1.718,0.936-2.886,0.93c-1.17-0.006-2.352-0.425-3.549-1.257l0.978-1.871c0.994,0.711,1.886,1.069,2.673,1.073
							c0.472,0.002,0.864-0.112,1.174-0.342c0.308-0.232,0.464-0.565,0.466-1.004c0.002-0.439-0.172-0.787-0.525-1.046
							c-0.35-0.259-0.84-0.39-1.464-0.393c-0.332-0.002-0.803,0.09-1.409,0.279l0.009-1.739l2.04-2.379L106.487,236.158z"/>
					</g>
					<g>
						<path style="fill:#737072;" d="M140.992,238.445c0.269-0.376,0.405-0.741,0.407-1.093c0.002-0.354-0.114-0.649-0.344-0.887
							c-0.232-0.238-0.527-0.358-0.891-0.36c-0.666-0.003-1.299,0.468-1.897,1.411l-1.886-1.128c0.498-0.764,1.043-1.34,1.636-1.73
							c0.591-0.39,1.343-0.582,2.256-0.578c0.911,0.005,1.712,0.297,2.401,0.882c0.687,0.583,1.028,1.373,1.023,2.371
							c-0.003,0.545-0.146,1.066-0.425,1.563c-0.28,0.499-0.794,1.132-1.544,1.905l-1.917,1.973l4.174,0.022l-0.011,2.117
							l-7.455-0.039l0.009-1.755l3.117-3.16C140.274,239.327,140.723,238.823,140.992,238.445z"/>
						<path style="fill:#737072;" d="M149.611,240.373l0.01-1.846l2.269,0.012l-0.01,1.846l1.194,0.006l-0.01,2.042l-1.194-0.006
							l-0.013,2.526l-2.269-0.012l0.013-2.526l-4.251-0.022l0.009-1.8l3.799-6.226l2.572,0.013l-3.616,5.986L149.611,240.373z"/>
					</g>
					<g>
						<path style="fill:#737072;" d="M180.497,238.65c0.269-0.376,0.405-0.741,0.407-1.093c0.002-0.354-0.113-0.649-0.343-0.887
							c-0.232-0.238-0.528-0.359-0.892-0.36c-0.666-0.003-1.299,0.468-1.897,1.411l-1.886-1.128c0.498-0.764,1.042-1.34,1.635-1.73
							c0.591-0.39,1.343-0.582,2.256-0.578c0.911,0.005,1.712,0.297,2.401,0.882c0.687,0.583,1.029,1.373,1.024,2.371
							c-0.003,0.545-0.146,1.066-0.425,1.563c-0.279,0.499-0.795,1.132-1.544,1.905l-1.917,1.973l4.174,0.022l-0.011,2.117
							l-7.455-0.039l0.009-1.755l3.117-3.16C179.779,239.531,180.229,239.028,180.497,238.65z"/>
						<path style="fill:#737072;" d="M192.005,234.589l-0.011,2.042l-4.174-0.022l-0.009,1.769c0.313-0.087,0.671-0.131,1.074-0.129
							c1.02,0.005,1.894,0.316,2.628,0.935c0.732,0.62,1.095,1.45,1.09,2.494c-0.005,1.044-0.389,1.903-1.154,2.581
							c-0.766,0.676-1.707,1.011-2.826,1.005c-1.433-0.007-2.624-0.543-3.577-1.606l1.248-1.719
							c0.091,0.091,0.212,0.203,0.362,0.336c0.152,0.131,0.427,0.307,0.829,0.526c0.402,0.217,0.805,0.328,1.208,0.33
							c0.403,0.002,0.761-0.117,1.075-0.356c0.315-0.242,0.473-0.598,0.476-1.073c0.002-0.472-0.166-0.839-0.502-1.098
							c-0.337-0.261-0.771-0.391-1.306-0.394c-0.534-0.003-1.155,0.185-1.863,0.565l-0.977-1.063l0.027-5.158L192.005,234.589z"/>
					</g>
					<g>
						<path style="fill:#737072;" d="M220.051,238.855c0.269-0.376,0.405-0.741,0.407-1.093c0.002-0.354-0.113-0.649-0.343-0.887
							c-0.232-0.239-0.528-0.359-0.892-0.36c-0.666-0.004-1.299,0.468-1.897,1.411l-1.885-1.129c0.498-0.764,1.042-1.34,1.635-1.73
							c0.591-0.39,1.343-0.583,2.256-0.578c0.911,0.005,1.712,0.298,2.4,0.882c0.687,0.583,1.029,1.373,1.024,2.371
							c-0.003,0.545-0.146,1.066-0.425,1.563c-0.279,0.499-0.794,1.132-1.543,1.905l-1.918,1.973l4.174,0.022l-0.011,2.117
							l-7.455-0.039l0.009-1.755l3.117-3.16C219.332,239.736,219.782,239.232,220.051,238.855z"/>
						<path style="fill:#737072;" d="M229.251,236.566c-0.656-0.003-1.163,0.213-1.523,0.65c-0.36,0.437-0.583,1.033-0.667,1.789
							c0.658-0.422,1.355-0.629,2.09-0.626c0.989,0.005,1.811,0.334,2.468,0.981c0.656,0.65,0.982,1.509,0.977,2.584
							c-0.006,1.073-0.364,1.931-1.079,2.572c-0.715,0.642-1.612,0.96-2.689,0.954c-0.747-0.004-1.394-0.149-1.942-0.441
							c-0.548-0.289-0.971-0.693-1.271-1.208c-0.6-1.001-0.895-2.254-0.888-3.756c0.005-0.968,0.126-1.816,0.367-2.546
							c0.241-0.73,0.57-1.305,0.985-1.728c0.811-0.842,1.811-1.259,3.001-1.253c0.494,0.003,0.964,0.078,1.414,0.227
							c0.446,0.149,0.791,0.299,1.033,0.45c0.24,0.154,0.506,0.347,0.798,0.579l-1.127,1.658c-0.061-0.061-0.147-0.141-0.264-0.244
							c-0.116-0.099-0.345-0.233-0.686-0.397C229.905,236.651,229.573,236.568,229.251,236.566z M228.921,240.375
							c-0.468-0.002-0.862,0.136-1.182,0.411c-0.32,0.275-0.48,0.636-0.482,1.079c-0.002,0.445,0.148,0.825,0.449,1.145
							c0.301,0.318,0.678,0.48,1.132,0.482c0.453,0.002,0.831-0.138,1.137-0.417c0.304-0.281,0.456-0.646,0.458-1.094
							c0.002-0.449-0.132-0.829-0.403-1.137C229.76,240.533,229.389,240.377,228.921,240.375z"/>
					</g>
					<g>
						<path style="fill:#737072;" d="M259.444,239.059c0.269-0.376,0.405-0.741,0.407-1.093c0.002-0.354-0.113-0.649-0.343-0.887
							c-0.232-0.238-0.528-0.359-0.891-0.36c-0.666-0.003-1.299,0.468-1.897,1.411l-1.886-1.129c0.498-0.764,1.042-1.34,1.635-1.73
							c0.591-0.39,1.343-0.582,2.256-0.578c0.911,0.005,1.712,0.298,2.401,0.882c0.687,0.583,1.029,1.373,1.023,2.371
							c-0.003,0.545-0.146,1.066-0.425,1.563c-0.279,0.499-0.794,1.132-1.544,1.905l-1.917,1.973l4.174,0.022l-0.011,2.116
							l-7.455-0.039l0.009-1.755l3.117-3.16C258.725,239.94,259.175,239.436,259.444,239.059z"/>
						<path style="fill:#737072;" d="M263.993,238.349l0.018-3.387l7.637,0.04l-0.009,1.785l-4.327,8.765l-2.569-0.013l4.127-8.524
							l-2.663-0.014l-0.007,1.362L263.993,238.349z"/>
					</g>
					<g>
						<path style="fill:#737072;" d="M299.052,239.264c0.269-0.376,0.405-0.741,0.407-1.093c0.002-0.354-0.114-0.649-0.344-0.887
							c-0.232-0.238-0.527-0.359-0.891-0.36c-0.666-0.003-1.299,0.468-1.897,1.411l-1.886-1.129c0.498-0.764,1.043-1.34,1.636-1.73
							c0.591-0.39,1.343-0.582,2.256-0.578c0.911,0.005,1.712,0.298,2.401,0.882c0.687,0.583,1.028,1.373,1.023,2.371
							c-0.003,0.545-0.146,1.066-0.425,1.563c-0.279,0.498-0.794,1.132-1.544,1.905l-1.918,1.973l4.174,0.021l-0.011,2.117
							l-7.455-0.039l0.009-1.755l3.118-3.16C298.334,240.145,298.783,239.641,299.052,239.264z"/>
						<path style="fill:#737072;" d="M305.136,235.765c0.702-0.552,1.579-0.824,2.627-0.819c1.05,0.005,1.92,0.287,2.612,0.846
							c0.693,0.557,1.037,1.243,1.033,2.053c-0.004,0.812-0.32,1.508-0.947,2.09c0.874,0.68,1.308,1.57,1.302,2.669
							c-0.005,0.927-0.382,1.707-1.133,2.338c-0.749,0.633-1.724,0.944-2.924,0.937c-1.2-0.006-2.17-0.327-2.914-0.967
							c-0.742-0.638-1.111-1.423-1.106-2.35c0.006-1.099,0.449-1.984,1.33-2.656c-0.632-0.598-0.946-1.299-0.942-2.106
							C304.078,236.995,304.431,236.315,305.136,235.765z M306.57,243.554c0.35,0.239,0.734,0.357,1.147,0.36
							c0.413,0.002,0.797-0.112,1.152-0.348c0.353-0.235,0.533-0.58,0.535-1.035c0.002-0.452-0.168-0.801-0.509-1.046
							c-0.343-0.243-0.73-0.365-1.164-0.368c-0.433-0.002-0.821,0.116-1.166,0.355c-0.343,0.242-0.517,0.588-0.519,1.041
							C306.043,242.968,306.217,243.315,306.57,243.554z M306.736,238.934c0.287,0.242,0.621,0.365,1.004,0.367
							c0.383,0.002,0.72-0.117,1.008-0.356c0.29-0.242,0.434-0.539,0.436-0.897c0.002-0.358-0.137-0.659-0.418-0.904
							c-0.281-0.242-0.619-0.365-1.012-0.367s-0.732,0.117-1.014,0.356c-0.284,0.242-0.428,0.541-0.43,0.899
							C306.308,238.39,306.451,238.689,306.736,238.934z"/>
					</g>
					<g>
						<path style="fill:#F68A73;" d="M60.329,263.261c0.269-0.376,0.405-0.741,0.407-1.093c0.002-0.354-0.113-0.649-0.344-0.887
							c-0.232-0.238-0.528-0.358-0.891-0.36c-0.666-0.003-1.299,0.468-1.897,1.411l-1.885-1.129c0.498-0.764,1.042-1.34,1.635-1.731
							c0.591-0.39,1.343-0.582,2.256-0.577c0.911,0.005,1.712,0.298,2.4,0.882c0.687,0.582,1.029,1.373,1.024,2.371
							c-0.003,0.546-0.146,1.067-0.425,1.563c-0.279,0.499-0.794,1.132-1.544,1.905l-1.917,1.972l4.174,0.022l-0.011,2.117
							l-7.455-0.039l0.009-1.755l3.117-3.16C59.611,264.143,60.06,263.64,60.329,263.261z"/>
						<path style="fill:#F68A73;" d="M68.298,267.849c0.656,0.003,1.163-0.213,1.523-0.65c0.36-0.437,0.582-1.033,0.667-1.789
							c-0.646,0.431-1.343,0.643-2.091,0.64c-0.988-0.005-1.81-0.334-2.467-0.987c-0.657-0.653-0.982-1.515-0.977-2.584
							c0.006-1.069,0.366-1.927,1.078-2.574c0.715-0.646,1.612-0.966,2.691-0.96c0.745,0.004,1.393,0.15,1.941,0.441
							c0.548,0.289,0.977,0.693,1.286,1.208c0.59,1.001,0.882,2.254,0.874,3.756c-0.005,0.968-0.128,1.816-0.369,2.546
							c-0.241,0.73-0.564,1.305-0.969,1.726c-0.831,0.844-1.837,1.261-3.016,1.255c-0.494-0.003-0.968-0.078-1.42-0.227
							c-0.454-0.149-0.795-0.297-1.025-0.444c-0.232-0.148-0.498-0.336-0.799-0.572l1.188-1.656c0.069,0.06,0.163,0.139,0.277,0.235
							c0.116,0.097,0.341,0.227,0.672,0.389C67.694,267.764,68.006,267.847,68.298,267.849z M68.644,264.038
							c0.469,0.002,0.861-0.13,1.174-0.401c0.313-0.271,0.472-0.628,0.474-1.071c0.002-0.445-0.146-0.829-0.447-1.153
							c-0.301-0.324-0.679-0.488-1.132-0.49c-0.455-0.002-0.825,0.14-1.115,0.425c-0.288,0.287-0.434,0.652-0.436,1.095
							c-0.002,0.445,0.126,0.821,0.387,1.128C67.811,263.881,68.175,264.035,68.644,264.038z"/>
					</g>
					<g>
						<path style="fill:#737072;" d="M95.733,261.336l0.01-2.012l6.472,0.034l-0.008,1.634l-2.175,2.453
							c0.845,0.144,1.5,0.504,1.961,1.076c0.459,0.574,0.689,1.231,0.686,1.978c-0.006,1.109-0.388,1.977-1.14,2.603
							c-0.756,0.626-1.718,0.936-2.886,0.93c-1.17-0.006-2.351-0.425-3.549-1.258l0.978-1.871c0.994,0.711,1.885,1.069,2.672,1.073
							c0.472,0.003,0.864-0.112,1.174-0.342c0.308-0.232,0.463-0.565,0.466-1.004c0.002-0.439-0.172-0.787-0.524-1.046
							c-0.35-0.259-0.84-0.39-1.464-0.393c-0.332-0.002-0.803,0.091-1.409,0.279l0.009-1.739l2.04-2.379L95.733,261.336z"/>
						<path style="fill:#737072;" d="M108.708,270.084c-1.462-0.008-2.553-0.509-3.275-1.507c-0.72-0.996-1.075-2.324-1.067-3.982
							c0.009-1.658,0.377-2.982,1.108-3.973c0.733-0.988,1.828-1.479,3.29-1.471c1.462,0.008,2.553,0.51,3.275,1.505
							c0.72,0.998,1.077,2.326,1.069,3.984c-0.009,1.658-0.379,2.982-1.11,3.971C111.266,269.6,110.171,270.091,108.708,270.084z
							 M107.192,262.061c-0.337,0.643-0.508,1.493-0.513,2.553c-0.006,1.058,0.156,1.912,0.487,2.558
							c0.329,0.648,0.847,0.973,1.553,0.977c0.705,0.004,1.227-0.316,1.563-0.961c0.337-0.643,0.508-1.495,0.513-2.553
							c0.006-1.059-0.156-1.912-0.487-2.558c-0.329-0.648-0.847-0.973-1.552-0.977C108.049,261.097,107.528,261.417,107.192,262.061
							z"/>
					</g>
				</g>
				<g>
					<g>
						<path style="fill:#F68A73;" d="M79.104,86.316c0,2.469-2.002,4.471-4.471,4.471c-2.469,0-4.471-2.002-4.471-4.471
							s2.002-4.471,4.471-4.471C77.102,81.846,79.104,83.847,79.104,86.316z"/>
						<g>
							<path style="fill:#737072;" d="M74.865,88.15l-0.458,0c-1.093,0-1.98-0.886-1.98-1.979l-0.005-18.135
								c0-1.093,0.886-1.98,1.979-1.98l0.458,0c1.093,0,1.98,0.886,1.98,1.979l0.005,18.135
								C76.844,87.263,75.958,88.149,74.865,88.15z"/>
						</g>
					</g>
					<g>
						<path style="fill:#F68A73;" d="M111.753,86.316c0,2.469-2.002,4.471-4.471,4.471s-4.471-2.002-4.471-4.471
							s2.002-4.471,4.471-4.471S111.753,83.847,111.753,86.316z"/>
						<g>
							<path style="fill:#737072;" d="M107.514,88.15l-0.458,0c-1.093,0-1.98-0.886-1.98-1.979l-0.005-18.135
								c0-1.093,0.886-1.98,1.979-1.98l0.458,0c1.093,0,1.98,0.886,1.98,1.979l0.005,18.135
								C109.493,87.263,108.607,88.149,107.514,88.15z"/>
						</g>
					</g>
					<g>
						<path style="fill:#F68A73;" d="M144.402,86.316c0,2.469-2.002,4.471-4.471,4.471c-2.469,0-4.471-2.002-4.471-4.471
							s2.002-4.471,4.471-4.471C142.401,81.846,144.402,83.847,144.402,86.316z"/>
						<g>
							<path style="fill:#737072;" d="M140.163,88.15l-0.458,0c-1.093,0-1.98-0.886-1.98-1.979l-0.005-18.135
								c0-1.093,0.886-1.98,1.979-1.98l0.458,0c1.093,0,1.98,0.886,1.98,1.979l0.005,18.135
								C142.143,87.263,141.257,88.149,140.163,88.15z"/>
						</g>
					</g>
					<g>
						<path style="fill:#F68A73;" d="M177.051,86.316c0,2.469-2.002,4.471-4.471,4.471c-2.469,0-4.471-2.002-4.471-4.471
							s2.002-4.471,4.471-4.471C175.05,81.846,177.051,83.847,177.051,86.316z"/>
						<g>
							<path style="fill:#737072;" d="M172.813,88.15l-0.458,0c-1.093,0-1.98-0.886-1.98-1.979l-0.005-18.135
								c0-1.093,0.886-1.98,1.979-1.98l0.458,0c1.093,0,1.98,0.886,1.98,1.979l0.005,18.135
								C174.792,87.263,173.906,88.149,172.813,88.15z"/>
						</g>
					</g>
					<g>
						<path style="fill:#F68A73;" d="M209.701,86.316c0,2.469-2.002,4.471-4.471,4.471c-2.469,0-4.471-2.002-4.471-4.471
							s2.002-4.471,4.471-4.471C207.699,81.846,209.701,83.847,209.701,86.316z"/>
						<g>
							<path style="fill:#737072;" d="M205.462,88.15l-0.458,0c-1.093,0-1.98-0.886-1.98-1.979l-0.005-18.135
								c0-1.093,0.886-1.98,1.979-1.98l0.458,0c1.093,0,1.98,0.886,1.98,1.979l0.005,18.135
								C207.441,87.263,206.555,88.149,205.462,88.15z"/>
						</g>
					</g>
					<g>
						<path style="fill:#F68A73;" d="M242.35,86.316c0,2.469-2.001,4.471-4.471,4.471s-4.471-2.002-4.471-4.471
							s2.002-4.471,4.471-4.471S242.35,83.847,242.35,86.316z"/>
						<g>
							<path style="fill:#737072;" d="M238.111,88.15l-0.458,0c-1.093,0-1.98-0.886-1.98-1.979l-0.005-18.135
								c0-1.093,0.886-1.98,1.979-1.98l0.458,0c1.093,0,1.98,0.886,1.98,1.979l0.005,18.135
								C240.09,87.263,239.204,88.149,238.111,88.15z"/>
						</g>
					</g>
					<g>
						<path style="fill:#F68A73;" d="M274.999,86.316c0,2.469-2.002,4.471-4.471,4.471c-2.469,0-4.471-2.002-4.471-4.471
							s2.002-4.471,4.471-4.471C272.997,81.846,274.999,83.847,274.999,86.316z"/>
						<g>
							<path style="fill:#737072;" d="M270.76,88.15l-0.458,0c-1.093,0-1.98-0.886-1.98-1.979l-0.005-18.135
								c0-1.093,0.886-1.98,1.979-1.98l0.458,0c1.093,0,1.98,0.886,1.98,1.979l0.005,18.135
								C272.74,87.263,271.853,88.149,270.76,88.15z"/>
						</g>
					</g>
					<g>
						<path style="fill:#F68A73;" d="M307.648,86.316c0,2.469-2.002,4.471-4.471,4.471c-2.469,0-4.471-2.002-4.471-4.471
							s2.002-4.471,4.471-4.471C305.647,81.846,307.648,83.847,307.648,86.316z"/>
						<g>
							<path style="fill:#737072;" d="M303.409,88.15l-0.458,0c-1.093,0-1.98-0.886-1.98-1.979l-0.005-18.135
								c0-1.093,0.886-1.98,1.979-1.98l0.458,0c1.093,0,1.98,0.886,1.98,1.979l0.005,18.135
								C305.389,87.263,304.503,88.149,303.409,88.15z"/>
						</g>
					</g>
					<g>
						<path style="fill:#F68A73;" d="M340.297,86.316c0,2.469-2.001,4.471-4.471,4.471c-2.469,0-4.471-2.002-4.471-4.471
							s2.002-4.471,4.471-4.471C338.296,81.846,340.297,83.847,340.297,86.316z"/>
						<g>
							<path style="fill:#737072;" d="M336.059,88.15l-0.458,0c-1.093,0-1.98-0.886-1.98-1.979l-0.005-18.135
								c0-1.093,0.886-1.98,1.979-1.98l0.458,0c1.093,0,1.98,0.886,1.98,1.979l0.005,18.135
								C338.038,87.263,337.152,88.149,336.059,88.15z"/>
						</g>
					</g>
					<g>
						<path style="fill:#F68A73;" d="M372.947,86.316c0,2.469-2.002,4.471-4.471,4.471c-2.469,0-4.471-2.002-4.471-4.471
							s2.001-4.471,4.471-4.471C370.945,81.846,372.947,83.847,372.947,86.316z"/>
						<g>
							<path style="fill:#737072;" d="M368.708,88.15l-0.458,0c-1.093,0-1.98-0.886-1.98-1.979l-0.005-18.135
								c0-1.093,0.886-1.98,1.979-1.98l0.458,0c1.093,0,1.98,0.886,1.98,1.979l0.005,18.135
								C370.687,87.263,369.801,88.149,368.708,88.15z"/>
						</g>
					</g>
				</g>
			</g>
		</g>
		<g>
			<defs>
				<path id="SVGID_1_" d="M440.766,278.3c-7.05-17.811-9.785-35.397-4.526-57.751c4.277-18.179,10.959-35.957,12.178-54.593
					C455.52,57.387,390.399,24.473,313.441,50.385c-24.661,8.303-79.225,24.868-105.762,26.875
					c-48.796,3.69-80.473-11.68-108.515-12.09C49.26,64.442,6.279,132.186,33.119,176.937c8.716,14.532,14.572,31.719,25.791,44.419
					c23.749,26.882,9.257,65.102,0.179,100.049c-5.683,21.876-18.61,45.326-6.028,78.292c3.092,8.1,12.816,13.635,15.664,21.234
					c10.309,27.502,36.474,46.627,69.112,47.382c43.898,1.014,81.281-25.783,120.45-41.495
					c19.393-7.779,39.662-13.204,60.721-11.344c25.17,2.223,47.822,15.039,73.434,16.375c32.387,1.689,65.825-14.687,77.612-46.238
					c10.679-28.585-2.635-55.206-16.1-80.096C448.8,295.984,444.255,287.114,440.766,278.3z"/>
			</defs>
			<clipPath id="SVGID_00000148652935292027703630000000599163465889128117_">
				<use xlink:href="#SVGID_1_"  style="overflow:visible;"/>
			</clipPath>
			<g style="clip-path:url(#SVGID_00000148652935292027703630000000599163465889128117_);">
				<g>
					<g>
						<path style="fill:#FFC4C2;" d="M189.692,250.363c2.396,5.909-30.49,6.982-26.752-0.495c3.738-7.477,3.79-20.561,3.79-20.561
							h21.394C188.124,229.307,187.296,244.454,189.692,250.363z"/>
						<path style="fill:#FFADAA;" d="M171.196,229.307c0.604,6.575,5,10.517,12.005,12.942c1.645,0.569,3.388,1.016,5.124,1.259
							c-0.619-6.549-0.201-14.201-0.201-14.201H171.196z"/>
						<path style="fill:#FFC4C2;" d="M199.12,209.251c-0.127-1.202-1.103-6.25-1.696-9.266c-0.127-0.721-0.267-1.41-0.413-2.084
							c-0.025-0.128-0.044-0.218-0.044-0.218s-0.002,0.01-0.003,0.011c-2.824-12.777-9.062-17.179-18.045-17.179
							c-11.706,0-21.195,13.304-21.195,29.715c0,16.411,13.915,24.322,25.446,26.338c12.968,2.268,15.557,0.628,16.261-7.096
							c0.001-0.002,0.003-0.004,0.004-0.006c1.15-3.225,0.786-9.392,2.804-10.951C204.256,216.956,199.303,210.994,199.12,209.251z"
							/>
						<path style="fill:#232323;" d="M206.343,183.216c-1.015-3.292-4.528-1.436-7.112,0.508c-0.057-0.238,7.57-4.896,5.262-6.511
							c-3.621-2.534-7.341,2.3-7.584,2.094c2.229-2.381,1.691-2.672-0.112-3.21c-0.683-0.204-2.963-0.023-5.54,1.426
							c-2.387,1.342-5.058,2.109-7.794,1.985c-2.608-0.118-6.282-0.395-13.015-0.708c-15.451-0.719-17.367,13.774-17.367,13.774
							s-6.348,4.791-5.51,14.852c0.838,10.061,18.685,25.632,18.685,25.632s7.666,3.234,15.571-3.713
							c7.905-6.947,3.833-11.738,7.269-15.464c3.437-3.727,0.037-5.257-0.682-11.485c-0.719-6.228,7.732-7.854,7.732-7.854
							C205.645,187.969,206.886,184.977,206.343,183.216z"/>
						<path style="fill:#FFC4C2;" d="M189.298,212.852c1.458,2.849,0.759,6.122-1.562,7.31c-2.321,1.188-5.385-0.158-6.843-3.007
							c-1.459-2.849-0.76-6.122,1.561-7.31C184.775,208.657,187.839,210.003,189.298,212.852z"/>
					</g>
					<g>
						<polygon style="fill:#D15332;" points="209.773,465.918 143.147,465.918 133.831,396.858 219.09,396.858 						"/>
						<path style="fill:none;stroke:#A34127;stroke-width:3.2902;stroke-miterlimit:10;" d="M167.365,414.432
							c0,0,0.994,8.527,8.123,17.555l0.117,33.931"/>
					</g>
					<g>
						<path style="fill:#FFC4C2;" d="M256.433,178.121c0,0-3.417,2.395-3.605,5.811c-0.152,2.767,0.776,8.296,2.401,9.92
							c1.625,1.625,2.276,0.503,2.276,0.503L256.433,178.121z"/>
						<path style="fill:#FFC4C2;" d="M268.031,202.826c0,0,1.513-5.277,2.643-17.721c0.164-1.81,1.052-5.436-0.877-6.707
							c-0.415-0.273-1.885-1.271-2.542,0.741c0.358-2.484-2.866-3.287-3.334-0.841c-0.052-2.649-3.338-2.564-3.734-0.287
							c0.122-3.08,0-4.416,0-7.705s-0.282-5.168-1.315-5.262c-1.034-0.094-2.264-0.961-3.786,15.694
							c-0.347,3.797-0.708,7.558-0.58,9.967c0.224,4.23,0.801,7.142,2.416,8.237C261.588,203.452,268.031,202.826,268.031,202.826z"
							/>
						<g>
							<path style="fill:#FFADAA;" d="M117.896,355.94l9.451-1.174c1.732-0.066,3.348,0.994,4.178,2.739l2.143,3.745L117.896,355.94
								z"/>
							<path style="fill:#FFC4C2;" d="M118.196,355.223c0,0,18.742,4.931,18.592,7.075c-0.241,3.463-3.152,10.536-4.287,12.426
								c-0.561,0.933-1.495,1.731-4.828,1.135c-2.359-0.421-6.121-1.628-8.566-3.416c-4.437-3.245-5.267-6.813-5.267-6.813
								L118.196,355.223z"/>
							<path style="fill:#FFADAA;" d="M135.499,367.627c0.667-1.979,1.193-3.943,1.29-5.329c0.149-2.144-18.593-7.075-18.593-7.075
								l-0.911,2.176C123.177,360.965,129.249,364.583,135.499,367.627z"/>
							<g>
								<path style="fill:#FFADAA;" d="M136.058,365.845c-0.302,0-0.61-0.065-0.902-0.203l-5.554-2.622
									c-1.056-0.499-1.509-1.76-1.01-2.817c0.499-1.057,1.76-1.509,2.817-1.01l5.555,2.622c1.056,0.499,1.509,1.76,1.01,2.817
									C137.612,365.397,136.851,365.845,136.058,365.845z"/>
								<path style="fill:#FFC4C2;" d="M134.609,369.783c-0.302,0-0.61-0.065-0.902-0.203l-5.555-2.622
									c-1.056-0.499-1.509-1.76-1.01-2.817c0.499-1.057,1.76-1.509,2.817-1.01l5.555,2.622c1.056,0.499,1.509,1.76,1.01,2.817
									C136.163,369.335,135.403,369.783,134.609,369.783z"/>
								<path style="fill:#FFADAA;" d="M136.725,367.731c0.024-0.816-0.425-1.608-1.21-1.978l-5.554-2.622
									c-0.846-0.4-1.816-0.182-2.428,0.46C130.499,365.135,133.608,366.571,136.725,367.731z"/>
								<path style="fill:#FFC4C2;" d="M133.161,373.72c-0.303,0-0.61-0.065-0.902-0.203l-5.554-2.622
									c-1.056-0.499-1.509-1.76-1.01-2.817c0.499-1.057,1.76-1.509,2.817-1.01l5.555,2.622c1.056,0.499,1.509,1.76,1.01,2.817
									C134.715,373.272,133.954,373.72,133.161,373.72z"/>
								<path style="fill:#FFC4C2;" d="M131.713,377.658c-0.303,0-0.61-0.065-0.902-0.203l-5.554-2.622
									c-1.056-0.499-1.509-1.76-1.01-2.817c0.499-1.057,1.76-1.509,2.817-1.01l5.554,2.622c1.056,0.499,1.509,1.76,1.01,2.817
									C133.266,377.21,132.506,377.658,131.713,377.658z"/>
							</g>
						</g>
						<g>
							<path style="fill:#6D80D9;" d="M153.771,251.91c-0.449-0.222,8.872-8.671,8.872-8.671s5.287,1.544,28.354,1.38l9.326,8.142
								C200.323,252.761,181.949,265.812,153.771,251.91z"/>
							<path style="fill:#6D80D9;" d="M254.331,195.441l0.148,4.96c-0.505,12.835-10.609,43.754-10.609,43.754l-22.503,8.15
								c-18.969-3.068-31.675-1.942-31.675-1.942l-26.752-0.495c0,0-33.837,8.91-40.129,14.718
								c-6.292,5.808-50.519,55.059-50.761,61.835c-0.242,6.776,41.79,39.208,41.79,39.208l4.356-10.406
								c0,0-6.29-16.832-18.371-30.318l29.111-17.563c1.448,18.232,1.549,25.519,2.897,42.681
								c2.318,29.517-1.438,57.416-1.438,57.416c49.654,16.458,96.33-1.087,96.33-1.087s-5.87-28.637-7.303-57.28
								c-1.432-28.642,8.925-55.775,8.925-55.775s35.606-27.105,36.443-35.897c0.837-8.792,4.429-48.415,4.429-48.415l0.75-8.67
								L254.331,195.441z"/>
							<path style="fill:#5868B0;" d="M256.715,257.357c-2.932,5.902-30.868,27.302-34.087,28.973
								c-7.974,4.141-9.021,10.916-8.791,19.318c0.19,6.93,1.287,13.796,1.497,20.725c0.392,12.934,0.861,26.462,5.293,38.594
								c-0.511-5.173-0.935-10.533-1.203-15.894c-1.432-28.642,8.925-55.775,8.925-55.775s35.606-27.105,36.443-35.897
								c0.837-8.792,4.429-48.415,4.429-48.415l0.751-8.67l-1.663-0.518C267.484,204.422,259.069,252.616,256.715,257.357z"/>
							<path style="fill:#5868B0;" d="M148.488,412.061c-5.712-9.536-7.254-19.694-8.171-31.255
								c-1.327-16.741-1.363-33.512-2.321-50.265c-0.415-7.255-0.94-14.225-0.615-21.496c0.235-5.247,0.555-10.606-0.479-15.747
								c-6.956,6.022-15.754,9.794-23.399,14.819c-6.492,4.268-17.44,7.64-21.025,15.05c-3.651,7.546,7.024,16.961,11.639,21.611
								c4.261,4.293,9.05,8.351,12.998,13.024l1.08-2.58c0,0-6.29-16.832-18.371-30.318l29.112-17.563
								c1.448,18.232,1.549,25.519,2.897,42.681c2.318,29.517-1.438,57.416-1.438,57.416
								C136.499,409.462,142.557,410.969,148.488,412.061z"/>
						</g>
						<path style="fill:#5868B0;" d="M200.323,387.663c0,0-36.797,5.873-55.995-11.599
							C144.328,376.064,159.231,406.861,200.323,387.663z"/>
						<g>
							<path style="fill:#5868B0;" d="M191.535,255.137c-2.374,1.82-5.215,2.981-8.125,3.719c-2.92,0.741-5.967,1.055-8.99,0.885
								c-3.011-0.229-6.032-0.697-8.844-1.792c-1.44-0.431-2.767-1.169-4.109-1.806c-1.311-0.712-2.548-1.564-3.743-2.43
								c1.467,0.34,2.823,0.86,4.231,1.217c1.414,0.335,2.776,0.779,4.189,1.018l2.09,0.429l2.106,0.301
								c0.697,0.124,1.401,0.182,2.104,0.244c0.704,0.051,1.403,0.165,2.11,0.149l2.114,0.093c0.705-0.016,1.41-0.048,2.117-0.048
								c1.414-0.033,2.824-0.165,4.24-0.311C185.859,256.475,188.682,255.949,191.535,255.137z"/>
						</g>
					</g>
				</g>
				<g>
					<g>
						<path style="fill:#8C9EF2;" d="M120.385,443.703c0.635-3.262,4.479-14.397,4.126-17.683
							c-0.444-4.137-1.916-8.083-4.256-11.523c-8.3-12.201-12.156-10.03-14.826-18.661c-10.628-34.349-29.121-19.991-45.011-34.331
							c0,0-2.264,20.422,0.371,23.819c1.955,2.52,4.796,4.097,7.899,4.836c1.557,0.371,2.839,1.244,3.618,2.865
							c1.567,3.26,0.394,5.581-1.955,7.294c-3.644,2.659-5.449,7.224-4.248,11.573c2.692,9.742,9.446,14.981,18.313,15.328
							c11.835,0.463-9.691,53.975,43.738,39.043c0,0,16.295-13.337,2.79-34.075C130.975,434.139,119.789,446.763,120.385,443.703z
							 M105.786,440.568c-0.505,1.212-2.061,1.69-3.212,1.164c-1.4-0.64-2.701-1.033-4.105-1.461
							c-1.295-0.395-2.139-1.391-1.941-2.812c0.166-1.191,1.598-2.311,2.812-1.941c1.78,0.543,3.585,1.063,5.282,1.838
							C105.85,437.917,106.286,439.369,105.786,440.568z M94.839,393.141c0.082,3.098-4.735,3.496-4.817,0.38
							c-0.051-1.941-0.069-3.91-0.693-5.767c-0.992-2.948,3.55-4.595,4.542-1.646C94.64,388.395,94.775,390.75,94.839,393.141z"/>
						<path style="fill:#6D80D9;" d="M60.395,361.725c-0.233,2.192-2.082,20.408,0.395,23.6c1.955,2.52,4.796,4.097,7.899,4.836
							c1.557,0.371,2.839,1.244,3.618,2.865c1.567,3.26,0.394,5.581-1.955,7.294c-3.644,2.659-5.449,7.224-4.248,11.573
							c2.692,9.743,9.446,14.981,18.313,15.328c11.835,0.463-9.691,53.975,43.738,39.043
							C128.155,466.263,96.71,396.761,60.395,361.725z M105.786,440.568c-0.505,1.212-2.061,1.69-3.212,1.164
							c-1.4-0.64-2.701-1.033-4.105-1.461c-1.295-0.395-2.139-1.391-1.941-2.812c0.166-1.191,1.598-2.311,2.812-1.941
							c1.78,0.543,3.585,1.063,5.282,1.838C105.85,437.917,106.286,439.369,105.786,440.568z"/>
						
							<path style="fill:none;stroke:#FFFFFF;stroke-width:0.9663;stroke-linecap:round;stroke-linejoin:round;stroke-miterlimit:10;" d="
							M147.55,513.385c-0.411-1.134-26.09-79.087-66.908-128.327"/>
						
							<path style="fill:none;stroke:#FFFFFF;stroke-width:0.9663;stroke-linecap:round;stroke-linejoin:round;stroke-miterlimit:10;" d="
							M96.462,406.527c0,0-12.661,1.751-20.642-0.972"/>
						
							<path style="fill:none;stroke:#FFFFFF;stroke-width:0.9663;stroke-linecap:round;stroke-linejoin:round;stroke-miterlimit:10;" d="
							M109.949,409.42c0,0-1.287,6.037-5.597,9.635"/>
						
							<path style="fill:none;stroke:#FFFFFF;stroke-width:0.9663;stroke-linecap:round;stroke-linejoin:round;stroke-miterlimit:10;" d="
							M104.381,450.546c0,0,8.313,5.002,18.453,2.944"/>
						
							<path style="fill:none;stroke:#FFFFFF;stroke-width:0.9663;stroke-linecap:round;stroke-linejoin:round;stroke-miterlimit:10;" d="
							M130.248,444.651c0,0,0.996,7.272-4.505,14.958"/>
					</g>
					<g>
						<path style="fill:#8C9EF2;" d="M362.082,389.371c7.84-34.508,27.586-52.544,17.134-59.803
							c-10.656-7.401-43.956,19.704-45.651,43.872c-0.812,5.651,0.582,13.143-1.435,10.647c-6.389-7.908-6.014-13.334-8.004-24.444
							c-0.463-2.584-2.226-4.849-4.739-5.61c-2.75-0.833-5.778,0.142-9.064,3.899c-8.976,10.264-7.275,28.157-1.589,54.942
							c-1.172-1.811-2.735-3.475-4.845-4.404c-3.444-1.516-9.824-4.294-12.638-0.261c-2.463,3.531-0.828,9.8-0.169,13.625
							c2.239,12.993,13.138,20.34,21.957,29.096c2.117,2.102,4.115,4.285,5.844,6.648c3.141,4.291,4.699,11.397,11.009,11.915
							c4.194,0.344,8.501,0.005,12.66-0.537c6.02-0.784,10.83-3.919,12.032-10.177c0.51-2.657,15.362-11.904,18.841-13.871
							c24.035-13.591,0.365-25.28-14.906-11.613c12.024-20.621,19.503-25.091,25.336-31.901
							C417.331,373.128,392.366,355.674,362.082,389.371z M360.49,360.09c1.872-3.078,4.148-5.768,6.874-8.123
							c1.027-0.888,2.767-0.41,3.483,0.61c0.832,1.184,0.41,2.602-0.61,3.483c-2.031,1.755-3.84,3.893-5.235,6.187
							c-0.704,1.157-2.012,1.81-3.334,1.178C360.536,362.883,359.788,361.244,360.49,360.09z M316.365,400.703
							c-2.552-4.935-4.324-10.103-4.547-15.69c-0.128-3.211,4.854-3.633,4.983-0.415c0.206,5.163,1.904,9.827,4.259,14.38
							C322.538,401.838,317.822,403.52,316.365,400.703z M367.165,415.823c-1.584,1.147-3.137,2.344-4.424,3.827
							c-2.112,2.432-5.93-0.796-3.817-3.23c1.558-1.794,3.449-3.3,5.368-4.69C366.907,409.836,369.768,413.938,367.165,415.823z"/>
						<path style="fill:#6D80D9;" d="M378.426,329.126c-11.407-5.684-43.206,20.706-44.861,44.313
							c-0.812,5.651,0.582,13.143-1.435,10.647c-6.389-7.908-6.014-13.334-8.004-24.444c-0.463-2.584-2.226-4.849-4.739-5.61
							c-2.75-0.833-5.778,0.142-9.064,3.899c-8.976,10.264-7.275,28.157-1.589,54.942c-1.172-1.811-2.735-3.475-4.845-4.404
							c-3.444-1.516-9.824-4.294-12.638-0.261c-2.463,3.531-0.828,9.8-0.169,13.625c2.239,12.993,13.138,20.34,21.957,29.096
							c2.117,2.102,4.115,4.285,5.844,6.648c3.141,4.291,4.699,11.397,11.009,11.915c0.819,0.067,1.642,0.107,2.467,0.125
							C330.607,462.365,334.969,366.147,378.426,329.126z M316.365,400.703c-2.552-4.935-4.324-10.103-4.547-15.69
							c-0.128-3.211,4.854-3.633,4.983-0.415c0.206,5.163,1.904,9.827,4.259,14.38C322.538,401.838,317.822,403.52,316.365,400.703z
							"/>
						<g>
							<g>
								<path style="fill:#FFFFFF;" d="M371.789,337.631c-2.124,1.593-4.039,3.679-5.75,5.819l-1.293,1.618
									c-0.432,0.539-0.799,1.128-1.202,1.69l-1.183,1.704l-0.592,0.852l-0.537,0.889l-2.144,3.56
									c-0.716,1.186-1.302,2.447-1.96,3.667c-0.625,1.237-1.316,2.442-1.888,3.706l-1.704,3.798
									c-0.548,1.275-1.18,2.513-1.661,3.817l-1.493,3.889l-1.493,3.889l-1.297,3.96l-1.29,3.963
									c-0.434,1.32-0.873,2.638-1.212,3.987l-2.192,8.045l-0.548,2.011l-0.457,2.035l-0.912,4.07
									c-0.59,2.717-1.256,5.418-1.784,8.147l-1.478,8.212c-0.468,2.741-1.052,5.463-1.385,8.227l-1.153,8.265l-0.577,4.132
									l-0.287,2.066l-0.212,2.076l-1.698,16.607l-0.003,0.024c-0.039,0.384-0.382,0.663-0.766,0.624
									c-0.384-0.039-0.663-0.382-0.624-0.766l0-0.002l1.755-16.645l0.22-2.08l0.294-2.072l0.591-4.143l1.183-8.286
									c0.343-2.77,0.937-5.501,1.415-8.249l1.509-8.234c0.539-2.738,1.216-5.448,1.817-8.174l0.929-4.083l0.465-2.041l0.557-2.019
									l2.227-8.075c0.345-1.353,0.79-2.678,1.231-4.003l1.309-3.98l1.317-3.977l1.515-3.909l1.515-3.909
									c0.487-1.31,1.128-2.558,1.685-3.84l1.73-3.821c0.581-1.272,1.282-2.487,1.917-3.733c0.668-1.229,1.263-2.498,1.991-3.695
									l2.179-3.593l0.546-0.897l0.603-0.862l1.205-1.724c0.41-0.569,0.784-1.163,1.225-1.71l1.32-1.643
									c1.774-2.189,3.653-4.261,5.996-6.004c0.216-0.161,0.521-0.116,0.682,0.1c0.161,0.216,0.116,0.521-0.1,0.682
									L371.789,337.631z"/>
							</g>
							
								<path style="fill:none;stroke:#FFFFFF;stroke-width:1.3978;stroke-linecap:round;stroke-linejoin:round;stroke-miterlimit:10;" d="
								M318.377,380.288c0,0,13.084,16.035,18.113,43.642"/>
							
								<path style="fill:none;stroke:#FFFFFF;stroke-width:1.3978;stroke-linecap:round;stroke-linejoin:round;stroke-miterlimit:10;" d="
								M387.813,380.613c0,0-30.301,12.363-53.202,55.592"/>
							
								<path style="fill:none;stroke:#FFFFFF;stroke-width:1.3978;stroke-linecap:round;stroke-linejoin:round;stroke-miterlimit:10;" d="
								M372.167,437.445c0,0-19.212,1.575-39.248,19.226"/>
							
								<path style="fill:none;stroke:#FFFFFF;stroke-width:1.3978;stroke-linecap:round;stroke-linejoin:round;stroke-miterlimit:10;" d="
								M301.248,417.706c0,0,17.079,11.693,30.294,42.09"/>
						</g>
					</g>
					<g>
						<path style="fill:#8C9EF2;" d="M233.526,423.695c-1.475-4.375-8.816-19-8.935-23.59c-0.149-5.778,1.152-11.483,3.741-16.65
							c9.185-18.327,14.894-16.047,16.983-28.423c8.317-49.254,36.423-32.884,55.665-55.552c0,0,6.874,27.704,3.87,32.867
							c-2.229,3.83-5.851,6.523-9.987,8.112c-2.075,0.797-3.681,2.235-4.455,4.611c-1.558,4.778,0.484,7.757,4.033,9.684
							c5.507,2.991,8.833,8.946,7.978,15.154c-1.915,13.911-10.252,22.366-22.398,24.474c-16.212,2.814,23.272,72.541-53.046,61.807
							c0,0-24.891-15.368-10.109-46.409C217.184,412.472,234.909,427.798,233.526,423.695z M253.053,416.692
							c0.918,1.576,3.149,1.948,4.637,1.012c1.81-1.138,3.53-1.919,5.384-2.767c1.711-0.782,2.689-2.309,2.156-4.229
							c-0.447-1.61-2.626-2.888-4.229-2.156c-2.352,1.075-4.741,2.123-6.935,3.502C252.477,413.054,252.144,415.133,253.053,416.692
							z M259.403,349.372c0.457,4.281,7.163,3.942,6.704-0.362c-0.286-2.682-0.625-5.397-0.106-8.069
							c0.823-4.241-5.734-5.674-6.557-1.432C258.805,342.799,259.051,346.067,259.403,349.372z"/>
						<path style="fill:#6D80D9;" d="M227.51,456.256c1.824-22.642,39.208-111.491,70.406-153.554
							c-19.043,17.917-44.715,5.632-52.601,52.329c-2.09,12.376-7.798,10.096-16.983,28.423c-2.59,5.167-3.891,10.872-3.741,16.65
							c0.119,4.59,7.46,19.216,8.935,23.59c1.383,4.103-16.342-11.222-16.659-13.915c-14.782,31.041,10.109,46.409,10.109,46.409
							C227.159,456.214,227.329,456.232,227.51,456.256z M259.444,339.509c0.823-4.243,7.381-2.809,6.557,1.432
							c-0.519,2.672-0.18,5.386,0.106,8.069c0.459,4.305-6.247,4.643-6.704,0.363C259.051,346.067,258.805,342.799,259.444,339.509z
							"/>
						
							<path style="fill:none;stroke:#FFFFFF;stroke-width:1.3424;stroke-linecap:round;stroke-linejoin:round;stroke-miterlimit:10;" d="
							M208.937,524.642c0.357-1.637,21.379-113.702,68.529-189.012"/>
						
							<path style="fill:none;stroke:#FFFFFF;stroke-width:1.3424;stroke-linecap:round;stroke-linejoin:round;stroke-miterlimit:10;" d="
							M259.63,368.104c0,0,17.757,0.082,28.245-5.135"/>
						
							<path style="fill:none;stroke:#FFFFFF;stroke-width:1.3424;stroke-linecap:round;stroke-linejoin:round;stroke-miterlimit:10;" d="
							M241.591,374.568c0,0,2.882,8.076,9.479,12.239"/>
						
							<path style="fill:none;stroke:#FFFFFF;stroke-width:1.3424;stroke-linecap:round;stroke-linejoin:round;stroke-miterlimit:10;" d="
							M256.822,430.173c0,0-10.527,8.417-24.868,7.447"/>
						
							<path style="fill:none;stroke:#FFFFFF;stroke-width:1.3424;stroke-linecap:round;stroke-linejoin:round;stroke-miterlimit:10;" d="
							M220.119,426.814c0,0-0.034,10.197,8.954,19.769"/>
					</g>
				</g>
			</g>
		</g>
		<g>
			<g>
				<path style="fill:#E5EBFC;" d="M429.392,228.304c-29.002,0.223-55.415,0.427-79.572,0.613c-2.939-31.213-2.939-62.379,0-93.592
					c24.157,0.186,50.57,0.39,79.572,0.613C426.065,166.741,426.065,197.501,429.392,228.304z"/>
				<path style="fill:#E5EBFC;" d="M433.392,224.304c-29.002,0.223-55.415,0.427-79.572,0.613c-2.939-31.213-2.939-62.379,0-93.592
					c24.157,0.186,50.57,0.39,79.572,0.613C430.065,162.741,430.065,193.501,433.392,224.304z"/>
				<g>
					<path style="fill:#737072;" d="M381.983,142.643c-7.629-0.045-15.057-0.088-22.291-0.131c0.045-0.622,0.092-1.244,0.139-1.867
						c7.236,0.045,14.665,0.091,22.296,0.138C382.079,141.403,382.03,142.023,381.983,142.643z"/>
					<path style="fill:#737072;" d="M422.811,155.187c-22.885-0.087-44.116-0.169-63.866-0.244c0.029-0.62,0.06-1.241,0.092-1.861
						c19.753,0.081,40.987,0.169,63.875,0.264C422.878,153.959,422.844,154.573,422.811,155.187z"/>
					<path style="fill:#737072;" d="M422.335,167.458c-22.869-0.041-44.085-0.078-63.82-0.113c0.014-0.619,0.028-1.238,0.044-1.858
						c19.737,0.041,40.955,0.085,63.825,0.133C422.367,166.233,422.35,166.846,422.335,167.458z"/>
					<path style="fill:#737072;" d="M422.207,179.717c-22.865,0.006-44.076,0.012-63.808,0.017
						c-0.002-0.619-0.003-1.238-0.003-1.857c19.732,0.001,40.943,0.002,63.808,0.003
						C422.204,178.492,422.205,179.104,422.207,179.717z"/>
					<path style="fill:#737072;" d="M422.426,191.977c-22.872,0.053-44.091,0.102-63.829,0.147c-0.018-0.619-0.034-1.239-0.05-1.858
						c19.737-0.039,40.954-0.082,63.824-0.128C422.388,190.751,422.406,191.364,422.426,191.977z"/>
					<path style="fill:#737072;" d="M422.993,204.254c-22.891,0.1-44.128,0.192-63.883,0.278c-0.034-0.621-0.066-1.241-0.097-1.861
						c19.752-0.08,40.985-0.166,63.873-0.258C422.92,203.026,422.956,203.64,422.993,204.254z"/>
					<path style="fill:#737072;" d="M423.909,216.564c-22.922,0.147-44.188,0.283-63.97,0.41c-0.049-0.623-0.098-1.245-0.145-1.868
						c19.778-0.12,41.038-0.25,63.955-0.39C423.801,215.332,423.855,215.948,423.909,216.564z"/>
				</g>
			</g>
			<g>
				<path style="fill:#E5EBFC;" d="M446.716,327.644c-27.6,8.908-52.738,17.022-75.728,24.442
					c-12.161-28.896-21.506-58.628-28.06-89.287c23.101-7.065,48.361-14.79,76.095-23.272
					C425.085,269.91,434.307,299.255,446.716,327.644z"/>
				<path style="fill:#E5EBFC;" d="M449.333,322.629c-27.601,8.908-52.738,17.021-75.728,24.442
					c-12.161-28.896-21.506-58.629-28.06-89.287c23.101-7.065,48.361-14.79,76.095-23.272
					C427.702,264.895,436.924,294.24,449.333,322.629z"/>
				<g>
					<path style="fill:#737072;" d="M375.806,260.137c-7.292,2.245-14.391,4.43-21.305,6.558c-0.143-0.607-0.286-1.215-0.427-1.823
						c6.916-2.127,14.018-4.31,21.312-6.553C375.525,258.926,375.665,259.532,375.806,260.137z"/>
					<path style="fill:#737072;" d="M418.517,259.863c-21.858,6.778-42.137,13.066-61.001,18.915
						c-0.158-0.601-0.315-1.201-0.47-1.803c18.869-5.845,39.152-12.127,61.016-18.9
						C418.212,258.672,418.364,259.268,418.517,259.863z"/>
					<path style="fill:#737072;" d="M421.742,271.713c-21.829,6.818-42.08,13.143-60.918,19.026
						c-0.173-0.595-0.344-1.19-0.514-1.786c18.841-5.878,39.096-12.198,60.929-19.009
						C421.404,270.535,421.572,271.124,421.742,271.713z"/>
					<path style="fill:#737072;" d="M425.295,283.446c-21.811,6.861-42.045,13.226-60.868,19.147c-0.188-0.59-0.374-1.18-0.559-1.77
						c18.824-5.915,39.06-12.274,60.873-19.128C424.924,282.279,425.109,282.862,425.295,283.446z"/>
					<path style="fill:#737072;" d="M429.179,295.077c-21.804,6.908-42.032,13.316-60.849,19.277
						c-0.203-0.586-0.404-1.171-0.604-1.758c18.817-5.955,39.045-12.357,60.849-19.257
						C428.776,293.919,428.977,294.498,429.179,295.077z"/>
					<path style="fill:#737072;" d="M433.401,306.619c-21.808,6.958-42.04,13.413-60.861,19.418
						c-0.218-0.582-0.435-1.164-0.651-1.747c18.82-5.998,39.05-12.446,60.857-19.397
						C432.963,305.47,433.181,306.045,433.401,306.619z"/>
					<path style="fill:#737072;" d="M437.966,318.088c-21.824,7.012-42.07,13.518-60.905,19.57
						c-0.234-0.579-0.466-1.159-0.698-1.738c18.832-6.045,39.075-12.542,60.896-19.546
						C437.494,316.945,437.729,317.517,437.966,318.088z"/>
				</g>
			</g>
		</g>
	</g>
</g>
</svg>
